<svg width="24" height="24" viewBox="0 0 24 24" fill="none" xmlns="http://www.w3.org/2000/svg">
<path d="M22.0104 15.5633L22.0111 15.5659L22.0111 15.5659C22.1777 16.1908 21.8187 16.8695 21.1852 16.992L15.248 18.5567C15.3218 19.7232 14.5692 20.8123 13.4006 21.1164C12.2324 21.4433 11.0183 20.8702 10.5101 19.8297L9.53069 20.0967L9.52965 20.097C9.32213 20.1488 9.10645 20.0453 9.05211 19.8293C9.05207 19.8292 9.05202 19.829 9.05198 19.8288L5.05601 5.11524L3.15698 5.59009L3.14485 5.54158L3.15698 5.59009C2.6678 5.71239 2.131 5.41952 1.98446 4.90644M22.0104 15.5633L2.03254 4.89271M22.0104 15.5633L22.0103 15.5631L21.5702 13.9419C21.5702 13.9417 21.5701 13.9415 21.5701 13.9414C21.5157 13.7254 21.3001 13.6219 21.0926 13.6737L21.0921 13.6739L19.4482 14.1017L17.6074 7.26778C17.6074 7.26763 17.6073 7.26749 17.6073 7.26735C17.553 7.0513 17.3373 6.9478 17.1297 6.99959L17.1289 6.9998L13.5387 7.96023L12.5556 4.32465C12.5555 4.32449 12.5555 4.32434 12.5554 4.32418C12.5011 4.10816 12.2854 4.00468 12.0779 4.05646L12.0773 4.05662L7.44427 5.27222M22.0104 15.5633L7.44427 5.27222M1.98446 4.90644L2.03254 4.89271M1.98446 4.90644C1.98446 4.90644 1.98446 4.90644 1.98446 4.90644L2.03254 4.89271M1.98446 4.90644C1.83714 4.39073 2.15705 3.87816 2.66768 3.73232L2.66935 3.73184L2.66935 3.73187L6.39957 2.80519M2.03254 4.89271C1.89353 4.40613 2.19467 3.91941 2.68141 3.7804L6.41243 2.85352M6.39957 2.80519C6.39929 2.80527 6.399 2.80535 6.39871 2.80543L6.41243 2.85352M6.39957 2.80519L6.40037 2.80499L6.41243 2.85352M6.39957 2.80519C6.5873 2.75217 6.80111 2.85931 6.85476 3.07278L6.85466 3.07238L6.80636 3.08532M6.41243 2.85352C6.57456 2.80729 6.75997 2.89991 6.80636 3.08532M6.80636 3.08532L6.85487 3.07319M6.80636 3.08532L7.40885 5.3332L6.85487 3.07319M6.85487 3.07319L7.44427 5.27222M6.85487 3.07319L7.44427 5.27222M5.69566 4.57859L5.69574 4.57856L5.69484 4.57588C5.643 4.42052 5.48752 4.28679 5.32299 4.28679H5.25348V4.28531L5.24158 4.28822L2.97057 4.84444L2.97056 4.8444L2.96874 4.84493C2.90054 4.8644 2.84767 4.85274 2.80897 4.8273C2.76911 4.8011 2.73999 4.75737 2.72666 4.7065C2.69985 4.60413 2.7392 4.49136 2.85698 4.45442L6.21463 3.60934L9.86301 17.0483C9.86306 17.0484 9.8631 17.0486 9.86314 17.0488C9.91748 17.2648 10.1332 17.3683 10.3407 17.3165L10.3411 17.3163L10.8074 17.1954C10.3554 17.7407 10.1774 18.4623 10.2723 19.1303L9.69214 19.2704L5.69566 4.57859ZM11.095 19.2924L11.0949 19.2923C10.802 18.3461 11.3424 17.3784 12.2881 17.1307L12.2885 17.1306C13.2799 16.8603 14.2481 17.5141 14.4278 18.4131L14.4278 18.4131L14.428 18.4141C14.6302 19.3353 14.0469 20.1691 13.1887 20.4177C12.2872 20.6655 11.3648 20.1695 11.095 19.2924ZM20.9756 16.2926L15.0638 17.8567C14.8151 17.2186 14.2796 16.7014 13.6326 16.4618C14.2563 16.2964 14.9239 16.1196 15.612 15.9373C17.3837 15.4681 19.2906 14.9631 20.9303 14.5248L21.2649 15.7743L21.2649 15.7745C21.3274 16.0037 21.2031 16.23 20.9766 16.2923C20.9764 16.2924 20.9762 16.2925 20.9759 16.2925L20.9756 16.2926ZM18.7257 14.3125L10.5029 16.4884L8.74467 10.0267L16.9675 7.85076L18.7257 14.3125ZM7.65554 6.01758L11.9155 4.88458L12.7933 8.14821L8.53319 9.2812L7.65554 6.01758Z" fill="#5D6679" stroke="#5D6679" stroke-width="0.1"/>
</svg>
